<svg id="visual" viewBox="0 0 960 300" width="960" height="300" xmlns="http://www.w3.org/2000/svg" xmlns:xlink="http://www.w3.org/1999/xlink" version="1.1"><rect x="0" y="0" width="960" height="300" fill="#420FE7"></rect><path d="M0 129L22.8 141C45.7 153 91.3 177 137 182.2C182.7 187.3 228.3 173.7 274 154.2C319.7 134.7 365.3 109.3 411.2 103.7C457 98 503 112 548.8 122C594.7 132 640.3 138 686 136.7C731.7 135.3 777.3 126.7 823 126C868.7 125.3 914.3 132.7 937.2 136.3L960 140L960 0L937.2 0C914.3 0 868.7 0 823 0C777.3 0 731.7 0 686 0C640.3 0 594.7 0 548.8 0C503 0 457 0 411.2 0C365.3 0 319.7 0 274 0C228.3 0 182.7 0 137 0C91.3 0 45.7 0 22.8 0L0 0Z" fill="#ea5f9d"></path><path d="M0 149L22.8 138.5C45.7 128 91.3 107 137 107.8C182.7 108.7 228.3 131.3 274 145.2C319.7 159 365.3 164 411.2 153.8C457 143.7 503 118.3 548.8 100.8C594.7 83.3 640.3 73.7 686 77.3C731.7 81 777.3 98 823 103C868.7 108 914.3 101 937.2 97.5L960 94L960 0L937.2 0C914.3 0 868.7 0 823 0C777.3 0 731.7 0 686 0C640.3 0 594.7 0 548.8 0C503 0 457 0 411.2 0C365.3 0 319.7 0 274 0C228.3 0 182.7 0 137 0C91.3 0 45.7 0 22.8 0L0 0Z" fill="#ec71a5"></path><path d="M0 131L22.8 126C45.7 121 91.3 111 137 99.2C182.7 87.3 228.3 73.7 274 64.8C319.7 56 365.3 52 411.2 49.7C457 47.3 503 46.7 548.8 47.5C594.7 48.3 640.3 50.7 686 63.8C731.7 77 777.3 101 823 110.3C868.7 119.7 914.3 114.3 937.2 111.7L960 109L960 0L937.2 0C914.3 0 868.7 0 823 0C777.3 0 731.7 0 686 0C640.3 0 594.7 0 548.8 0C503 0 457 0 411.2 0C365.3 0 319.7 0 274 0C228.3 0 182.7 0 137 0C91.3 0 45.7 0 22.8 0L0 0Z" fill="#ed82ad"></path><path d="M0 43L22.8 42.8C45.7 42.7 91.3 42.3 137 52C182.7 61.7 228.3 81.3 274 86C319.7 90.7 365.3 80.3 411.2 70.8C457 61.3 503 52.7 548.8 51.8C594.7 51 640.3 58 686 58.3C731.7 58.7 777.3 52.3 823 52.3C868.7 52.3 914.3 58.7 937.2 61.8L960 65L960 0L937.2 0C914.3 0 868.7 0 823 0C777.3 0 731.7 0 686 0C640.3 0 594.7 0 548.8 0C503 0 457 0 411.2 0C365.3 0 319.7 0 274 0C228.3 0 182.7 0 137 0C91.3 0 45.7 0 22.8 0L0 0Z" fill="#ee92b5"></path><path d="M0 62L22.8 58.2C45.7 54.3 91.3 46.7 137 43.2C182.7 39.7 228.3 40.3 274 38.5C319.7 36.7 365.3 32.3 411.2 29.8C457 27.3 503 26.7 548.8 28.8C594.7 31 640.3 36 686 33.2C731.7 30.3 777.3 19.7 823 15.7C868.7 11.7 914.3 14.3 937.2 15.7L960 17L960 0L937.2 0C914.3 0 868.7 0 823 0C777.3 0 731.7 0 686 0C640.3 0 594.7 0 548.8 0C503 0 457 0 411.2 0C365.3 0 319.7 0 274 0C228.3 0 182.7 0 137 0C91.3 0 45.7 0 22.8 0L0 0Z" fill="#eea1be"></path></svg>