<svg id="visual" viewBox="0 0 900 100" width="900" height="100" xmlns="http://www.w3.org/2000/svg" xmlns:xlink="http://www.w3.org/1999/xlink" version="1.1"><rect x="0" y="0" width="900" height="100" fill="#420fe7"></rect><path d="M0 25L11.5 24.5C23 24 46 23 69 22.3C92 21.7 115 21.3 138.2 27.7C161.3 34 184.7 47 207.8 51.3C231 55.7 254 51.3 277 55.8C300 60.3 323 73.7 346 76C369 78.3 392 69.7 415.2 62.2C438.3 54.7 461.7 48.3 484.8 51.7C508 55 531 68 554 74.2C577 80.3 600 79.7 623 75.2C646 70.7 669 62.3 692.2 63.7C715.3 65 738.7 76 761.8 81.8C785 87.7 808 88.3 831 85C854 81.7 877 74.3 888.5 70.7L900 67L900 0L888.5 0C877 0 854 0 831 0C808 0 785 0 761.8 0C738.7 0 715.3 0 692.2 0C669 0 646 0 623 0C600 0 577 0 554 0C531 0 508 0 484.8 0C461.7 0 438.3 0 415.2 0C392 0 369 0 346 0C323 0 300 0 277 0C254 0 231 0 207.8 0C184.7 0 161.3 0 138.2 0C115 0 92 0 69 0C46 0 23 0 11.5 0L0 0Z" fill="#eea1be"></path><path d="M0 69L11.5 62.3C23 55.7 46 42.3 69 38.8C92 35.3 115 41.7 138.2 48.8C161.3 56 184.7 64 207.8 66C231 68 254 64 277 64C300 64 323 68 346 64.2C369 60.3 392 48.7 415.2 41.5C438.3 34.3 461.7 31.7 484.8 29.7C508 27.7 531 26.3 554 27.5C577 28.7 600 32.3 623 37C646 41.7 669 47.3 692.2 52.2C715.3 57 738.7 61 761.8 58.5C785 56 808 47 831 43.8C854 40.7 877 43.3 888.5 44.7L900 46L900 0L888.5 0C877 0 854 0 831 0C808 0 785 0 761.8 0C738.7 0 715.3 0 692.2 0C669 0 646 0 623 0C600 0 577 0 554 0C531 0 508 0 484.8 0C461.7 0 438.3 0 415.2 0C392 0 369 0 346 0C323 0 300 0 277 0C254 0 231 0 207.8 0C184.7 0 161.3 0 138.2 0C115 0 92 0 69 0C46 0 23 0 11.5 0L0 0Z" fill="#ee92b5"></path><path d="M0 58L11.5 50.5C23 43 46 28 69 21.3C92 14.7 115 16.3 138.2 20.3C161.3 24.3 184.7 30.7 207.8 36.5C231 42.3 254 47.7 277 46.3C300 45 323 37 346 32C369 27 392 25 415.2 25.7C438.3 26.3 461.7 29.7 484.8 35.3C508 41 531 49 554 47.5C577 46 600 35 623 34.7C646 34.3 669 44.7 692.2 45.8C715.3 47 738.7 39 761.8 33.8C785 28.7 808 26.3 831 24.3C854 22.3 877 20.7 888.5 19.8L900 19L900 0L888.5 0C877 0 854 0 831 0C808 0 785 0 761.8 0C738.7 0 715.3 0 692.2 0C669 0 646 0 623 0C600 0 577 0 554 0C531 0 508 0 484.8 0C461.7 0 438.3 0 415.2 0C392 0 369 0 346 0C323 0 300 0 277 0C254 0 231 0 207.8 0C184.7 0 161.3 0 138.2 0C115 0 92 0 69 0C46 0 23 0 11.5 0L0 0Z" fill="#ed82ad"></path><path d="M0 38L11.5 38.8C23 39.7 46 41.3 69 41.8C92 42.3 115 41.7 138.2 40.8C161.3 40 184.7 39 207.8 37.7C231 36.3 254 34.7 277 30.7C300 26.7 323 20.3 346 21.7C369 23 392 32 415.2 35.3C438.3 38.7 461.7 36.3 484.8 36C508 35.7 531 37.3 554 38.7C577 40 600 41 623 41.2C646 41.3 669 40.7 692.2 39.3C715.3 38 738.7 36 761.8 35.2C785 34.3 808 34.7 831 35.7C854 36.7 877 38.3 888.5 39.2L900 40L900 0L888.5 0C877 0 854 0 831 0C808 0 785 0 761.8 0C738.7 0 715.3 0 692.2 0C669 0 646 0 623 0C600 0 577 0 554 0C531 0 508 0 484.8 0C461.7 0 438.3 0 415.2 0C392 0 369 0 346 0C323 0 300 0 277 0C254 0 231 0 207.8 0C184.7 0 161.3 0 138.2 0C115 0 92 0 69 0C46 0 23 0 11.5 0L0 0Z" fill="#ec71a5"></path><path d="M0 23L11.5 20.5C23 18 46 13 69 11.8C92 10.7 115 13.3 138.2 15.7C161.3 18 184.7 20 207.8 19.2C231 18.3 254 14.7 277 11.8C300 9 323 7 346 7C369 7 392 9 415.2 11.2C438.3 13.3 461.7 15.7 484.8 16.5C508 17.3 531 16.7 554 14.2C577 11.7 600 7.3 623 7C646 6.7 669 10.3 692.2 10.7C715.3 11 738.7 8 761.8 8.8C785 9.7 808 14.3 831 16.3C854 18.3 877 17.7 888.5 17.3L900 17L900 0L888.5 0C877 0 854 0 831 0C808 0 785 0 761.8 0C738.7 0 715.3 0 692.2 0C669 0 646 0 623 0C600 0 577 0 554 0C531 0 508 0 484.8 0C461.7 0 438.3 0 415.2 0C392 0 369 0 346 0C323 0 300 0 277 0C254 0 231 0 207.8 0C184.7 0 161.3 0 138.2 0C115 0 92 0 69 0C46 0 23 0 11.5 0L0 0Z" fill="#ea5f9d"></path></svg>